<mxfile host="www.draw.io" modified="2019-12-10T09:03:46.899Z" agent="Mozilla/5.0 (Windows NT 10.0; Win64; x64) AppleWebKit/537.36 (KHTML, like Gecko) Chrome/78.0.3904.108 Safari/537.36" etag="e5vNpbfrdGbYuL9rMVKr" version="12.3.9" type="github" pages="1">
  <diagram id="ErTGY_6ML-W6KUS1sWa1" name="Page-1">
    <mxGraphModel dx="1422" dy="794" grid="1" gridSize="10" guides="1" tooltips="1" connect="1" arrows="1" fold="1" page="1" pageScale="1" pageWidth="827" pageHeight="1169" math="1" shadow="0">
      <root>
        <mxCell id="0"/>
        <mxCell id="1" parent="0"/>
        <mxCell id="Fuug4zXgTjasP_kXOBZ3-1" value="" style="group" parent="1" vertex="1" connectable="0">
          <mxGeometry x="161" y="161" width="30" height="30" as="geometry"/>
        </mxCell>
        <mxCell id="Fuug4zXgTjasP_kXOBZ3-2" value="" style="group" parent="Fuug4zXgTjasP_kXOBZ3-1" vertex="1" connectable="0">
          <mxGeometry width="30" height="30" as="geometry"/>
        </mxCell>
        <mxCell id="Fuug4zXgTjasP_kXOBZ3-3" value="" style="group" parent="Fuug4zXgTjasP_kXOBZ3-2" vertex="1" connectable="0">
          <mxGeometry width="30" height="30" as="geometry"/>
        </mxCell>
        <mxCell id="Fuug4zXgTjasP_kXOBZ3-4" value="" style="ellipse;whiteSpace=wrap;html=1;aspect=fixed;" parent="Fuug4zXgTjasP_kXOBZ3-3" vertex="1">
          <mxGeometry width="30" height="30" as="geometry"/>
        </mxCell>
        <mxCell id="Fuug4zXgTjasP_kXOBZ3-5" value="" style="endArrow=none;html=1;" parent="Fuug4zXgTjasP_kXOBZ3-3" edge="1">
          <mxGeometry width="50" height="50" relative="1" as="geometry">
            <mxPoint x="4.285714285714286" y="25.71428571428571" as="sourcePoint"/>
            <mxPoint x="25.71428571428571" y="4.285714285714286" as="targetPoint"/>
          </mxGeometry>
        </mxCell>
        <mxCell id="Fuug4zXgTjasP_kXOBZ3-6" value="&lt;span style=&quot;font-size: 32px ; text-align: left&quot;&gt;$$A$$&lt;/span&gt;" style="text;html=1;align=center;verticalAlign=middle;resizable=0;points=[];;autosize=1;" parent="1" vertex="1">
          <mxGeometry x="120" y="55" width="110" height="30" as="geometry"/>
        </mxCell>
        <mxCell id="Fuug4zXgTjasP_kXOBZ3-7" value="&lt;div style=&quot;text-align: left&quot;&gt;&lt;span style=&quot;font-size: 32px&quot;&gt;$$A_0$$&lt;/span&gt;&lt;/div&gt;" style="text;html=1;align=center;verticalAlign=middle;resizable=0;points=[];;autosize=1;" parent="1" vertex="1">
          <mxGeometry x="258" y="55" width="140" height="30" as="geometry"/>
        </mxCell>
        <mxCell id="Fuug4zXgTjasP_kXOBZ3-8" style="edgeStyle=orthogonalEdgeStyle;rounded=0;orthogonalLoop=1;jettySize=auto;html=1;exitX=0.5;exitY=1;exitDx=0;exitDy=0;" parent="1" source="Fuug4zXgTjasP_kXOBZ3-4" edge="1">
          <mxGeometry relative="1" as="geometry">
            <mxPoint x="176" y="261" as="targetPoint"/>
          </mxGeometry>
        </mxCell>
        <mxCell id="Fuug4zXgTjasP_kXOBZ3-9" value="&lt;font style=&quot;font-size: 24px&quot;&gt;$$RR&#39;_{Positive}$$&lt;/font&gt;" style="text;html=1;align=center;verticalAlign=middle;resizable=0;points=[];;autosize=1;" parent="1" vertex="1">
          <mxGeometry x="99" y="266" width="220" height="20" as="geometry"/>
        </mxCell>
        <mxCell id="Fuug4zXgTjasP_kXOBZ3-10" value="" style="ellipse;whiteSpace=wrap;html=1;aspect=fixed;" parent="1" vertex="1">
          <mxGeometry x="304" y="161" width="30" height="30" as="geometry"/>
        </mxCell>
        <mxCell id="Fuug4zXgTjasP_kXOBZ3-11" value="" style="group" parent="1" vertex="1" connectable="0">
          <mxGeometry x="304" y="161" width="30" height="30" as="geometry"/>
        </mxCell>
        <mxCell id="Fuug4zXgTjasP_kXOBZ3-12" value="" style="group" parent="Fuug4zXgTjasP_kXOBZ3-11" vertex="1" connectable="0">
          <mxGeometry width="30" height="30" as="geometry"/>
        </mxCell>
        <mxCell id="Fuug4zXgTjasP_kXOBZ3-13" value="" style="group" parent="Fuug4zXgTjasP_kXOBZ3-12" vertex="1" connectable="0">
          <mxGeometry width="30" height="30" as="geometry"/>
        </mxCell>
        <mxCell id="Fuug4zXgTjasP_kXOBZ3-14" value="" style="ellipse;whiteSpace=wrap;html=1;aspect=fixed;" parent="Fuug4zXgTjasP_kXOBZ3-13" vertex="1">
          <mxGeometry width="30" height="30" as="geometry"/>
        </mxCell>
        <mxCell id="Fuug4zXgTjasP_kXOBZ3-15" value="" style="endArrow=none;html=1;" parent="Fuug4zXgTjasP_kXOBZ3-13" edge="1">
          <mxGeometry width="50" height="50" relative="1" as="geometry">
            <mxPoint x="4.285714285714286" y="25.71428571428571" as="sourcePoint"/>
            <mxPoint x="25.71428571428571" y="4.285714285714286" as="targetPoint"/>
          </mxGeometry>
        </mxCell>
        <mxCell id="Fuug4zXgTjasP_kXOBZ3-16" style="edgeStyle=orthogonalEdgeStyle;rounded=0;orthogonalLoop=1;jettySize=auto;html=1;exitX=0.5;exitY=1;exitDx=0;exitDy=0;entryX=0.5;entryY=0;entryDx=0;entryDy=0;fontColor=#FFFFFF;" parent="1" source="Fuug4zXgTjasP_kXOBZ3-17" target="Fuug4zXgTjasP_kXOBZ3-4" edge="1">
          <mxGeometry relative="1" as="geometry"/>
        </mxCell>
        <mxCell id="Fuug4zXgTjasP_kXOBZ3-17" value="" style="whiteSpace=wrap;html=1;aspect=fixed;fontColor=#FFFFFF;strokeColor=none;" parent="1" vertex="1">
          <mxGeometry x="152.5" y="39" width="47" height="47" as="geometry"/>
        </mxCell>
        <mxCell id="Fuug4zXgTjasP_kXOBZ3-18" style="edgeStyle=orthogonalEdgeStyle;rounded=0;orthogonalLoop=1;jettySize=auto;html=1;exitX=0.5;exitY=1;exitDx=0;exitDy=0;entryX=0.5;entryY=0;entryDx=0;entryDy=0;fontColor=#FFFFFF;" parent="1" source="Fuug4zXgTjasP_kXOBZ3-19" target="Fuug4zXgTjasP_kXOBZ3-14" edge="1">
          <mxGeometry relative="1" as="geometry"/>
        </mxCell>
        <mxCell id="Fuug4zXgTjasP_kXOBZ3-19" value="" style="whiteSpace=wrap;html=1;aspect=fixed;fontColor=#FFFFFF;strokeColor=#FFFFFF;" parent="1" vertex="1">
          <mxGeometry x="295.5" y="39" width="47" height="47" as="geometry"/>
        </mxCell>
        <mxCell id="Fuug4zXgTjasP_kXOBZ3-20" value="" style="endArrow=classic;html=1;fontColor=#FFFFFF;entryX=0;entryY=0;entryDx=0;entryDy=0;" parent="1" target="Fuug4zXgTjasP_kXOBZ3-14" edge="1" source="Fuug4zXgTjasP_kXOBZ3-6">
          <mxGeometry width="50" height="50" relative="1" as="geometry">
            <mxPoint x="210.30916630060642" y="85" as="sourcePoint"/>
            <mxPoint x="250" y="101" as="targetPoint"/>
          </mxGeometry>
        </mxCell>
        <mxCell id="Fuug4zXgTjasP_kXOBZ3-21" value="" style="endArrow=classic;html=1;fontColor=#FFFFFF;exitX=0.313;exitY=1.027;exitDx=0;exitDy=0;exitPerimeter=0;entryX=1;entryY=0;entryDx=0;entryDy=0;" parent="1" source="Fuug4zXgTjasP_kXOBZ3-7" target="Fuug4zXgTjasP_kXOBZ3-4" edge="1">
          <mxGeometry width="50" height="50" relative="1" as="geometry">
            <mxPoint x="207.47173075716296" y="95" as="sourcePoint"/>
            <mxPoint x="192" y="176" as="targetPoint"/>
          </mxGeometry>
        </mxCell>
        <mxCell id="Fuug4zXgTjasP_kXOBZ3-22" style="edgeStyle=orthogonalEdgeStyle;rounded=0;orthogonalLoop=1;jettySize=auto;html=1;exitX=0.5;exitY=1;exitDx=0;exitDy=0;" parent="1" edge="1">
          <mxGeometry relative="1" as="geometry">
            <mxPoint x="320" y="261.4999999999999" as="targetPoint"/>
            <mxPoint x="320" y="191.16666666666674" as="sourcePoint"/>
          </mxGeometry>
        </mxCell>
        <mxCell id="Fuug4zXgTjasP_kXOBZ3-23" value="&lt;font style=&quot;font-size: 24px&quot;&gt;$$RR&#39;_{Negative}$$&lt;/font&gt;" style="text;html=1;align=center;verticalAlign=middle;resizable=0;points=[];;autosize=1;direction=east;" parent="1" vertex="1">
          <mxGeometry x="240" y="269" width="230" height="20" as="geometry"/>
        </mxCell>
      </root>
    </mxGraphModel>
  </diagram>
</mxfile>
